<svg xmlns="http://www.w3.org/2000/svg" viewBox="0 0 24 24" fill="#ffffff">
  <path d="M11.25 2.002C9.808 2.002 8.618 3.023 8.505 4.46L8.25 7.5H6.75A2.25 2.25 0 0 0 4.5 9.75V14.25a3.75 3.75 0 0 0 3.75 3.75h.75a.75.75 0 0 0 .75-.75v-1.688c0-.621.248-1.217.69-1.655l.06-.06a1.5 1.5 0 0 1 2.12 0l.06.06c.442.438.69 1.034.69 1.655V17.25a.75.75 0 0 0 .75.75H13.5a3.75 3.75 0 0 0 3.75-3.75V9a.75.75 0 0 0-1.5 0v1.5a.75.75 0 0 1-1.5 0V7.5a.75.75 0 0 0-1.5 0v3a.75.75 0 0 1-1.5 0V5.25a2.25 2.25 0 0 0-2.248-2.248z"/>
</svg>
